<svg preserveAspectRatio="none" width="100%" height="100%" overflow="visible" style="display: block;" viewBox="0 0 17.1522 17.4084" fill="none" xmlns="http://www.w3.org/2000/svg">
<g id="Union">
<path fill-rule="evenodd" clip-rule="evenodd" d="M11.6041 0.951903C12.8733 -0.317301 14.9311 -0.317301 16.2003 0.951903C17.4695 2.22111 17.4695 4.27889 16.2003 5.5481L5.84099 15.9074C5.04396 16.7044 3.96296 17.1522 2.83579 17.1522H1.75C0.783502 17.1522 6.06915e-07 16.3687 0 15.4022V14.3164C7.08067e-07 13.1892 0.447767 12.1082 1.2448 11.3112L11.6041 0.951903ZM11.6394 4.16924C11.327 3.85682 10.8205 3.85682 10.5081 4.16924L2.30546 12.3719C1.78973 12.8876 1.5 13.5871 1.5 14.3164L1.5 15.4022C1.5 15.5403 1.61193 15.6522 1.75 15.6522L2.83579 15.6522C3.56513 15.6522 4.2646 15.3625 4.78033 14.8467L12.9829 6.64412C13.2954 6.3317 13.2954 5.82516 12.9829 5.51275L11.6394 4.16924ZM15.1396 4.48744C14.8467 4.78033 14.3719 4.78033 14.079 4.48744L12.6647 3.07323C12.3719 2.78033 12.3719 2.30546 12.6647 2.01256C13.3482 1.32915 14.4562 1.32915 15.1396 2.01256C15.823 2.69598 15.823 3.80402 15.1396 4.48744Z" fill="#161823"/>
<path d="M14.8493 16.4626C14.4013 16.3669 13.7639 16.3592 13.0225 16.7677C11.7343 17.4776 10.6185 17.498 9.80035 17.3024C9.39973 17.2066 9.08306 17.0622 8.86206 16.9383C8.75131 16.8762 8.66356 16.8186 8.60011 16.7738C8.56532 16.7492 8.53097 16.7237 8.49786 16.6968L8.4914 16.6915L8.4888 16.6894C8.4888 16.6894 8.08542 16.3843 7.82974 16.0699L8.86206 14.9957C9.14792 15.3452 9.45366 15.5402 9.46614 15.549C9.49117 15.5667 9.53482 15.5958 9.59574 15.63C9.71805 15.6986 9.90572 15.7853 10.1492 15.8435C10.6192 15.9559 11.3507 15.9763 12.2986 15.454C13.4044 14.8447 14.4198 14.837 15.1627 14.9957C15.529 15.074 15.8255 15.1915 16.0341 15.2916C16.1387 15.3419 16.2224 15.3884 16.283 15.4244C16.3134 15.4424 16.3381 15.4579 16.3568 15.4701C16.3662 15.4762 16.3742 15.4814 16.3806 15.4857C16.3823 15.4869 16.3855 15.4891 16.3855 15.4891L16.3891 15.4915L16.3925 15.4939L16.394 15.4949C16.3958 15.4962 16.644 15.6694 16.8979 16.0054L15.8712 16.9383L15.5417 16.7293C15.5382 16.727 15.5298 16.7216 15.5166 16.7138C15.4903 16.6982 15.4456 16.6731 15.3847 16.6438C15.262 16.5849 15.0785 16.5116 14.8493 16.4626Z" fill="#161823"/>
</g>
</svg>
