<svg preserveAspectRatio="none" width="100%" height="100%" overflow="visible" style="display: block;" viewBox="0 0 11.6667 11.9067" fill="none" xmlns="http://www.w3.org/2000/svg">
<g id="Union">
<path d="M3.5 6.06667C3.85438 6.06667 4.14167 5.77938 4.14167 5.425C4.14167 5.07062 3.85438 4.78333 3.5 4.78333C3.14562 4.78333 2.85833 5.07062 2.85833 5.425C2.85833 5.77938 3.14562 6.06667 3.5 6.06667Z" fill="#161823"/>
<path d="M5.83333 6.06667C6.18772 6.06667 6.475 5.77938 6.475 5.425C6.475 5.07062 6.18772 4.78333 5.83333 4.78333C5.47895 4.78333 5.19167 5.07062 5.19167 5.425C5.19167 5.77938 5.47895 6.06667 5.83333 6.06667Z" fill="#161823"/>
<path d="M8.80833 5.425C8.80833 5.77938 8.52105 6.06667 8.16667 6.06667C7.81228 6.06667 7.525 5.77938 7.525 5.425C7.525 5.07062 7.81228 4.78333 8.16667 4.78333C8.52105 4.78333 8.80833 5.07062 8.80833 5.425Z" fill="#161823"/>
<path fill-rule="evenodd" clip-rule="evenodd" d="M5.83333 0C2.64723 0 0 2.38171 0 5.39583C0 8.24581 2.34777 10.5628 5.32677 10.8007L5.31763 10.8481C5.28427 11.0209 5.24856 11.206 5.23127 11.3214C5.21562 11.4258 5.2155 11.6553 5.42145 11.809C5.60415 11.9454 5.80284 11.9062 5.88169 11.8837C7.3977 11.4512 8.83325 10.559 9.89379 9.42159C10.9523 8.28638 11.6667 6.87315 11.6667 5.39583C11.6667 2.38171 9.01943 0 5.83333 0ZM0.875 5.39583C0.875 2.93314 3.05936 0.875 5.83333 0.875C8.60731 0.875 10.7917 2.93314 10.7917 5.39583C10.7917 6.58916 10.2101 7.79927 9.25383 8.82487C8.43287 9.70532 7.35737 10.4249 6.20714 10.8557C6.22716 10.7504 6.2462 10.6469 6.2584 10.5678C6.26431 10.5294 6.2705 10.485 6.27325 10.4455C6.27434 10.4299 6.27685 10.3911 6.27228 10.3467C6.27051 10.3295 6.26436 10.2718 6.23469 10.2059C6.20888 10.1485 6.09501 9.94583 5.83333 9.94583C3.04001 9.94583 0.875 7.86294 0.875 5.39583Z" fill="#161823"/>
</g>
</svg>
