<svg width="20" height="20" viewBox="0 0 20 20" fill="none" xmlns="http://www.w3.org/2000/svg">
<path fill-rule="evenodd" clip-rule="evenodd" d="M16.8032 11.8617C18.1399 12.8556 18.2824 14.8045 17.1046 15.9823L16.9838 16.1031L16.2573 16.8296C15.418 17.669 14.176 18.1087 12.9613 17.7531C10.5482 17.0467 8.23385 15.7109 6.28613 13.7632C4.3384 11.8155 3.00262 9.50111 2.29625 7.08805C1.94068 5.87337 2.38038 4.63134 3.21971 3.79201L4.06701 2.94471C5.24481 1.76691 7.19371 1.90945 8.18761 3.24607L9.24541 4.66863C10.0687 5.77582 9.8871 7.21631 9.00536 8.20056C8.93858 8.27511 8.93029 8.38702 8.99187 8.46592C9.36314 8.9416 9.7687 9.40115 10.2084 9.84089C10.6482 10.2806 11.1077 10.6862 11.5834 11.0574C11.6623 11.119 11.7742 11.1107 11.8487 11.0439C12.833 10.1622 14.2735 9.98058 15.3807 10.8039L16.8032 11.8617ZM16.2207 15.0984C16.8592 14.46 16.7819 13.4035 16.0574 12.8648L14.6348 11.807C14.0458 11.369 13.2247 11.429 12.7056 11.9481L12.5485 12.1149C12.207 12.4776 11.6492 12.5355 11.243 12.247C10.5734 11.7713 9.80125 11.2015 9.32456 10.7248C8.84622 10.2464 8.23807 9.51961 7.74139 8.87552C7.44115 8.48617 7.49216 7.93743 7.84422 7.59423L8.10124 7.34369C8.62028 6.82465 8.68033 6.00354 8.24233 5.41451L7.18453 3.99195C6.64577 3.26741 5.58934 3.19015 4.9509 3.82859L4.10359 4.67589C3.52978 5.2497 3.29003 6.03357 3.4959 6.73688C4.14349 8.94911 5.37087 11.0802 7.17001 12.8793C8.96916 14.6785 11.1002 15.9059 13.3125 16.5534C14.0158 16.7593 14.7996 16.5196 15.3734 15.9457L16.2207 15.0984Z" fill="#161823"/>
</svg>
