<svg width="359" height="53" viewBox="0 0 359 53" fill="none" xmlns="http://www.w3.org/2000/svg">
<g filter="url(#i)"><path d="M335.784 38.2169C325.643 38.0932 317.2 30.3983 316.138 20.3121L315.131 10.7438C314.488 4.63642 309.338 0 303.197 0H16C7.16344 0 0 7.16344 0 16V116C0 124.837 7.16344 132 16 132H343C351.837 132 359 124.837 359 116V50.3546C359 43.7842 353.716 38.4356 347.146 38.3554L335.784 38.2169Z" fill="url(#g0)"/><path d="M335.784 38.2169C325.643 38.0932 317.2 30.3983 316.138 20.3121L315.131 10.7438C314.488 4.63642 309.338 0 303.197 0H16C7.16344 0 0 7.16344 0 16V116C0 124.837 7.16344 132 16 132H343C351.837 132 359 124.837 359 116V50.3546C359 43.7842 353.716 38.4356 347.146 38.3554L335.784 38.2169Z" fill="url(#g1)"/></g>
<path d="M303.197.5H16C7.44.5.5 7.44.5 16v100c0 8.56 6.94 15.5 15.5 15.5h327c8.56 0 15.5-6.94 15.5-15.5V50.355c0-6.297-5.063-11.422-11.359-11.5l-11.363-.138c-10.394-.127-19.049-8.014-20.137-18.353l-1.007-9.568C314.018 4.943 309.082.5 303.197.5Z" stroke="white"/>
<defs><filter id="i" x="0" y="0" width="359" height="134"><feFlood flood-opacity="0"/><feBlend in="SourceGraphic"/><feColorMatrix in="SourceAlpha" values="0 0 0 0 0 0 0 0 0 0 0 0 0 0 0 0 0 0 127 0" result="a"/><feOffset dy="2"/><feGaussianBlur stdDeviation="1"/><feComposite in2="a" operator="arithmetic" k2="-1" k3="1"/><feColorMatrix values="0 0 0 0 1 0 0 0 0 1 0 0 0 0 1 0 0 0 .25 0"/><feBlend in2="SourceGraphic"/></filter><linearGradient id="g0" x1="179.5" y1="33" x2="179.5" y2="0"><stop stop-color="white"/><stop offset="1" stop-color="white" stop-opacity=".85"/></linearGradient><linearGradient id="g1" x1="179" y1="66" x2="0" y2="66"><stop stop-color="white" stop-opacity="0"/><stop offset="1" stop-color="white"/></linearGradient></defs>
</svg>
