<svg preserveAspectRatio="none" width="100%" height="100%" overflow="visible" style="display: block;" viewBox="0 0 66.8391 11.3662" fill="none" xmlns="http://www.w3.org/2000/svg">
<g id="Group 6">
<g id="Battery">
<rect id="Border" opacity="0.35" x="42.9476" y="0.503988" width="21.056" height="10.3609" rx="2.17244" stroke="black" stroke-width="1.00267"/>
<path id="Cap" opacity="0.4" d="M65.5076 3.67908V7.68974C66.3144 7.35006 66.8391 6.55987 66.8391 5.68441C66.8391 4.80895 66.3144 4.01876 65.5076 3.67908" fill="black"/>
<rect id="Capacity" x="44.4516" y="2.00798" width="18.048" height="7.35289" rx="1.33689" fill="black"/>
</g>
<path id="Wifi" fill-rule="evenodd" clip-rule="evenodd" d="M29.7428 2.2834C31.9646 2.2835 34.1014 3.13721 35.7117 4.66808C35.8329 4.78626 36.0267 4.78477 36.1461 4.66473L37.3052 3.49496C37.3657 3.43407 37.3994 3.3516 37.3989 3.26579C37.3984 3.17998 37.3637 3.09791 37.3026 3.03774C33.0762 -1.01258 26.4087 -1.01258 22.1823 3.03774C22.1211 3.09787 22.0864 3.17991 22.0858 3.26572C22.0853 3.35153 22.1189 3.43403 22.1793 3.49496L23.3388 4.66473C23.4581 4.78495 23.6521 4.78645 23.7732 4.66808C25.3837 3.13711 27.5208 2.28339 29.7428 2.2834ZM29.7428 6.08919C30.9635 6.08912 32.1407 6.54286 33.0456 7.36225C33.168 7.47854 33.3607 7.47602 33.4801 7.35657L34.6378 6.18679C34.6988 6.12543 34.7326 6.04219 34.7317 5.9557C34.7308 5.8692 34.6953 5.78667 34.6331 5.72656C31.8776 3.16336 27.6103 3.16336 24.8548 5.72656C24.7925 5.78667 24.757 5.86924 24.7562 5.95577C24.7554 6.04229 24.7893 6.12552 24.8504 6.18679L26.0078 7.35657C26.1272 7.47602 26.3199 7.47854 26.4423 7.36225C27.3466 6.5434 28.5229 6.0897 29.7428 6.08919ZM32.0619 8.64982C32.0637 8.73656 32.0296 8.82018 31.9677 8.88095L29.965 10.902C29.9063 10.9614 29.8263 10.9948 29.7428 10.9948C29.6593 10.9948 29.5792 10.9614 29.5205 10.902L27.5175 8.88095C27.4556 8.82014 27.4216 8.73649 27.4234 8.64975C27.4253 8.56301 27.4628 8.48087 27.5272 8.42273C28.8062 7.34097 30.6794 7.34097 31.9583 8.42273C32.0227 8.48092 32.0602 8.56308 32.0619 8.64982Z" fill="black"/>
<path id="Cellular Connection" fill-rule="evenodd" clip-rule="evenodd" d="M16.0427 0.336884H15.04C14.4863 0.336884 14.0374 0.785793 14.0374 1.33955V10.0293C14.0374 10.5831 14.4863 11.032 15.04 11.032H16.0427C16.5964 11.032 17.0454 10.5831 17.0454 10.0293V1.33955C17.0454 0.785793 16.5964 0.336884 16.0427 0.336884ZM10.3609 2.67645H11.3636C11.9173 2.67645 12.3662 3.12536 12.3662 3.67912V10.0293C12.3662 10.5831 11.9173 11.032 11.3636 11.032H10.3609C9.80715 11.032 9.35825 10.5831 9.35825 10.0293V3.67912C9.35825 3.12536 9.80715 2.67645 10.3609 2.67645ZM6.68444 5.01598H5.68177C5.12802 5.01598 4.67911 5.46489 4.67911 6.01865V10.0293C4.67911 10.5831 5.12802 11.032 5.68177 11.032H6.68444C7.2382 11.032 7.68711 10.5831 7.68711 10.0293V6.01865C7.68711 5.46489 7.2382 5.01598 6.68444 5.01598ZM2.00533 7.02132H1.00267C0.448909 7.02132 0 7.47023 0 8.02398V10.0293C0 10.5831 0.448909 11.032 1.00267 11.032H2.00533C2.55909 11.032 3.008 10.5831 3.008 10.0293V8.02398C3.008 7.47023 2.55909 7.02132 2.00533 7.02132Z" fill="black"/>
</g>
</svg>
