<svg preserveAspectRatio="none" width="100%" height="100%" overflow="visible" style="display: block;" viewBox="0 0 43.9971 9.99512" fill="none" xmlns="http://www.w3.org/2000/svg">
<g id="&#230;&#138;&#150;&#233;&#159;&#179;&#230;&#151;&#151;&#232;&#136;&#176;">
<path id="Union" d="M25.4707 1.08301H26.6348V2.03613H24.5645V3.25293H25.6768C26.1751 3.25317 26.5791 3.6579 26.5791 4.16602V8.88965C26.579 9.26964 26.3406 9.53859 25.9756 9.67969C25.6117 9.82025 25.1184 9.83678 24.5928 9.71387L24.5625 9.70605V8.75488L24.6084 8.7627C24.9125 8.81205 25.1456 8.82137 25.3008 8.77441C25.3772 8.75129 25.4323 8.71448 25.4688 8.66504C25.5051 8.61555 25.5254 8.54848 25.5254 8.45801V4.48633C25.5254 4.35084 25.4197 4.23828 25.2881 4.23828H24.5645V5.75879C24.5643 7.91221 23.6749 9.4567 22.7275 9.96387L22.6689 9.99512V8.49609L22.6816 8.48438C22.9347 8.24782 23.1532 7.84347 23.3086 7.31738C23.4638 6.79192 23.5557 6.14808 23.5557 5.4375V2.03613H22.6689V1.08301H24.3994L24.1064 0.0205078H25.1855L25.4707 1.08301ZM9.01367 5.8291L10.0449 5.73242V6.79785L9.01367 6.89258V9.99023H7.88184V6.99609L3.58008 7.3916V6.33789L7.88184 5.93555V0H9.01367V5.8291ZM36.9834 0.84668H37.3926C37.9014 0.846814 38.284 1.22903 38.2842 1.7373V8.49707C38.2842 8.96222 38.1663 9.33104 37.8145 9.55176C37.4671 9.76954 36.9014 9.83638 36.0254 9.73145L35.9902 9.72754V8.74023L36.0352 8.74609C36.3079 8.78204 36.5211 8.79501 36.6875 8.78711C36.8542 8.77919 36.9708 8.75009 37.0527 8.70508C37.2107 8.61825 37.2529 8.4627 37.2529 8.22168V5.41797H35.6475V6.7168C35.6475 7.73521 35.3604 8.51672 34.9951 9.05859C34.6433 9.58047 34.2157 9.88395 33.8994 9.95703L33.8203 9.9834V8.77832L33.834 8.7666C34.3006 8.35471 34.6513 7.69142 34.6514 6.63867V5.41797H33.8184V4.49805H34.6514V1.74902C34.6514 1.22957 35.0347 0.84668 35.5547 0.84668H35.9658L36.1855 0.0283203H37.21L36.9834 0.84668ZM41.6396 5.75391C41.6396 5.78538 41.6394 5.81722 41.6387 5.84863V7.64551C41.6387 8.04759 41.6939 8.35155 41.8154 8.55371C41.9347 8.75185 42.1199 8.85637 42.3955 8.85645C42.6265 8.85645 42.7896 8.76316 42.8984 8.61719C43.0085 8.46953 43.0655 8.26508 43.0762 8.04297L43.0781 8.00488H43.9971V8.04395C43.9971 8.65989 43.8201 9.11131 43.5244 9.4082C43.2289 9.70478 42.8196 9.84275 42.3633 9.84277C41.842 9.84277 41.4533 9.63785 41.1885 9.33691C40.9493 9.06505 40.8124 8.71629 40.7676 8.37305C40.1943 9.16449 39.3861 9.75577 38.4961 9.96387L38.4482 9.97461V8.9209L38.4756 8.91309C39.7428 8.52075 40.6181 7.41816 40.6182 5.86426V1.88574H41.6396V5.75391ZM2.39551 1.60645H3.64844V2.63867H2.39551V4.98828L3.64844 4.7998V5.85449L2.39551 6.04297V8.62305C2.3955 9.13727 2.2169 9.47696 1.92773 9.68652C1.64097 9.89429 1.25178 9.9697 0.837891 9.96973C0.580158 9.96973 0.288553 9.93688 0.03125 9.88086L0 9.87402V8.85059L0.0478516 8.86133C0.245574 8.9045 0.464951 8.93749 0.660156 8.9375C0.840182 8.9375 0.997919 8.91029 1.10938 8.84375C1.21767 8.77903 1.28613 8.67535 1.28613 8.51172V6.20996L0.0332031 6.39844V5.34375L1.28613 5.15527V2.63867H0.0332031V1.60645H1.28613V0H2.39551V1.60645ZM19.6338 5.25C20.1878 5.25 20.626 5.69924 20.626 6.24121V8.95117C20.626 9.49314 20.1878 9.94336 19.6338 9.94336H13.0898C12.5253 9.94336 12.0859 9.49344 12.0859 8.95117V6.24121C12.0859 5.69894 12.5253 5.25 13.0898 5.25H19.6338ZM28.291 9.83594H27.0762L28.126 8.25195H29.2354L28.291 9.83594ZM32.584 9.83594H31.3682L30.4238 8.25195H31.5342L32.584 9.83594ZM13.2168 8.69727C13.2168 8.82879 13.3302 8.93457 13.4658 8.93457H19.2471C19.3825 8.93436 19.4951 8.82866 19.4951 8.69727V7.97461H13.2168V8.69727ZM28.9717 2.8418H30.5869V2.0791H31.6191V2.8418H32.4375V3.76172H31.6191V7.18945H32.5605V8.09863H26.9326V7.18945H27.9404V3.76172H27.1533V2.8418H27.9404V2.0791H28.9717V2.8418ZM37.2012 7.6084H36.1768L35.6865 6.02441H36.7227L37.2012 7.6084ZM28.9717 7.18945H30.5869V6.52832H28.9717V7.18945ZM42.5078 0.393555C43.0416 0.393555 43.4004 0.84574 43.4004 1.2959V7.13184H42.3682V1.61621C42.3682 1.54211 42.3433 1.48046 42.3027 1.4375C42.2623 1.39482 42.2037 1.36826 42.1309 1.36816H40.1367C40.0075 1.36837 39.9111 1.46874 39.9111 1.61621V7.14355H38.8916V1.28516C38.8916 0.845667 39.25 0.393822 39.7832 0.393555H42.5078ZM13.4658 6.23633C13.3312 6.23633 13.2168 6.34101 13.2168 6.48438V7.09863H19.4951V6.48438C19.4951 6.34115 19.3815 6.23654 19.2471 6.23633H13.4658ZM28.9717 5.68555H30.5869V5.14551H28.9717V5.68555ZM7.11914 3.78418V4.83887L4.37891 4.25781V3.19141L7.11914 3.78418ZM14.5635 3.58008H18.1953L18.4727 2.06445H19.6611L19.373 3.58008H21.4355V4.56641H11.2793V3.58008H13.3867L13.1094 2.06445H14.2861L14.5635 3.58008ZM35.8301 1.7666C35.7303 1.7666 35.6476 1.84856 35.6475 1.94824V4.49805H37.2529V1.95898C37.2527 1.85686 37.1677 1.7666 37.0703 1.7666H35.8301ZM28.9717 4.30176H30.5869V3.76172H28.9717V4.30176ZM37.2119 4.00098H36.1875L35.6973 2.41699H36.7334L37.2119 4.00098ZM28.54 0.0595703C28.5419 0.319542 28.5151 0.565606 28.4648 0.795898H32.4932V1.74902H28.0879C27.7405 2.32996 27.2479 2.73033 26.8135 2.9082L26.7344 2.94336V1.71094L26.75 1.69922C27.2363 1.34284 27.4979 0.789975 27.542 0.0576172L27.5439 0.0205078H28.54V0.0595703ZM7.11914 1.41406V2.49219L4.37891 1.89844V0.820312L7.11914 1.41406ZM17.1289 0.802734H21.2246V1.78906H11.4883V0.802734H15.9062L15.7178 0.0507812H16.9521L17.1289 0.802734Z" fill="url(#paint0_linear_0_1007)"/>
</g>
<defs>
<linearGradient id="paint0_linear_0_1007" x1="19.875" y1="4.99512" x2="43.9971" y2="4.99512" gradientUnits="userSpaceOnUse">
<stop stop-color="#FFEBE0"/>
<stop offset="1" stop-color="#FFCAAE"/>
</linearGradient>
</defs>
</svg>
