<svg preserveAspectRatio="none" width="100%" height="100%" overflow="visible" style="display: block;" viewBox="0 0 16.6667 17.0096" fill="none" xmlns="http://www.w3.org/2000/svg">
<g id="Union">
<path d="M5 8.66667C5.50626 8.66667 5.91667 8.25626 5.91667 7.75C5.91667 7.24374 5.50626 6.83333 5 6.83333C4.49374 6.83333 4.08333 7.24374 4.08333 7.75C4.08333 8.25626 4.49374 8.66667 5 8.66667Z" fill="#161823"/>
<path d="M8.33333 8.66667C8.83959 8.66667 9.25 8.25626 9.25 7.75C9.25 7.24374 8.83959 6.83333 8.33333 6.83333C7.82707 6.83333 7.41667 7.24374 7.41667 7.75C7.41667 8.25626 7.82707 8.66667 8.33333 8.66667Z" fill="#161823"/>
<path d="M12.5833 7.75C12.5833 8.25626 12.1729 8.66667 11.6667 8.66667C11.1604 8.66667 10.75 8.25626 10.75 7.75C10.75 7.24374 11.1604 6.83333 11.6667 6.83333C12.1729 6.83333 12.5833 7.24374 12.5833 7.75Z" fill="#161823"/>
<path fill-rule="evenodd" clip-rule="evenodd" d="M8.33333 0C3.78176 0 0 3.40244 0 7.70833C0 11.7797 3.35395 15.0897 7.60967 15.4296L7.59661 15.4972C7.54895 15.7442 7.49794 16.0085 7.47324 16.1734C7.45088 16.3226 7.45072 16.6504 7.74493 16.87C8.00593 17.0648 8.28977 17.0088 8.40242 16.9767C10.5681 16.3588 12.6189 15.0842 14.134 13.4594C15.6461 11.8377 16.6667 9.81878 16.6667 7.70833C16.6667 3.40244 12.8849 0 8.33333 0ZM1.25 7.70833C1.25 4.1902 4.37051 1.25 8.33333 1.25C12.2962 1.25 15.4167 4.1902 15.4167 7.70833C15.4167 9.41308 14.5859 11.1418 13.2198 12.607C12.047 13.8647 10.5105 14.8927 8.86734 15.5082C8.89594 15.3577 8.92314 15.2098 8.94057 15.0968C8.94901 15.042 8.95785 14.9786 8.96179 14.9222C8.96334 14.8999 8.96693 14.8444 8.9604 14.781C8.95787 14.7565 8.94908 14.674 8.9067 14.5798C8.86983 14.4979 8.70716 14.2083 8.33333 14.2083C4.34287 14.2083 1.25 11.2328 1.25 7.70833Z" fill="#161823"/>
</g>
</svg>
