<svg preserveAspectRatio="none" width="100%" height="100%" overflow="visible" style="display: block;" viewBox="0 0 17.5996 3.59961" fill="none" xmlns="http://www.w3.org/2000/svg">
<path id="Union" d="M1.7998 0C2.79385 0 3.5995 0.805782 3.59961 1.7998C3.59961 2.79392 2.79392 3.59961 1.7998 3.59961C0.805782 3.5995 0 2.79385 0 1.7998C0.000105514 0.805847 0.805847 0.000105514 1.7998 0ZM8.7998 0C9.79385 0 10.5995 0.805782 10.5996 1.7998C10.5996 2.79392 9.79392 3.59961 8.7998 3.59961C7.80578 3.5995 7 2.79385 7 1.7998C7.00011 0.805847 7.80585 0.000105514 8.7998 0ZM15.7998 0C16.7939 0 17.5995 0.805782 17.5996 1.7998C17.5996 2.79392 16.7939 3.59961 15.7998 3.59961C14.8058 3.5995 14 2.79385 14 1.7998C14.0001 0.805847 14.8058 0.000105514 15.7998 0Z" fill="#161823"/>
</svg>
