<svg preserveAspectRatio="none" width="100%" height="100%" overflow="visible" style="display: block;" viewBox="0 0 10.4189 11.9182" fill="none" xmlns="http://www.w3.org/2000/svg">
<path id="Union" d="M4.44922 0.264715C4.88833 -0.087936 5.53346 -0.0888662 5.97363 0.265692C6.41005 0.617306 6.97822 1.0175 7.47266 1.18854C8.01801 1.37699 8.84487 1.51794 9.46777 1.60456C10.0057 1.67949 10.4186 2.13533 10.4189 2.67976V5.85652C10.4188 7.44801 9.92996 8.69221 9.07031 9.66805C8.2134 10.6404 6.99516 11.3381 5.55078 11.8585C5.33084 11.9377 5.0895 11.9382 4.87012 11.8595C3.42489 11.339 2.20595 10.6399 1.34863 9.66707C0.488656 8.69095 6.41475e-05 7.44669 0 5.85457V2.67976C0.000306394 2.13518 0.412307 1.67944 0.950195 1.60456C1.57283 1.51796 2.39943 1.37697 2.94531 1.18854C3.44091 1.01727 4.01176 0.616364 4.44922 0.264715ZM5.50586 1.1905C5.34032 1.06524 5.10799 1.07284 4.94336 1.19929C4.49543 1.54346 3.83127 1.94408 3.24512 2.14655C2.6914 2.33764 1.96536 2.47746 1.36328 2.57234C1.15723 2.60481 1.00424 2.7808 1.00391 2.98933V5.84968C1.00395 7.23593 1.41954 8.23924 2.10449 9.01668C2.76335 9.76426 3.73075 10.3659 4.99414 10.8536C5.13295 10.9071 5.28698 10.9072 5.42578 10.8536C6.68883 10.3659 7.65588 9.76404 8.31445 9.01668C9.09788 8.12722 9.39072 7.01414 9.41406 5.85164V2.98933C9.41372 2.78097 9.26049 2.60499 9.05469 2.57234C8.45238 2.47747 7.72533 2.33781 7.17188 2.14655C6.56788 1.93771 5.96372 1.53714 5.50586 1.1905ZM8.23633 4.96101L5.79102 7.40535C5.2834 7.91269 4.46074 7.91269 3.95312 7.40535L2.4873 5.94051L3.19434 5.23347L4.66016 6.69832C4.77725 6.81514 4.96689 6.81514 5.08398 6.69832L7.5293 4.25398L8.23633 4.96101Z" fill="#161823"/>
</svg>
