<svg preserveAspectRatio="none" width="100%" height="100%" overflow="visible" style="display: block;" viewBox="0 0 26.9451 11.0891" fill="none" xmlns="http://www.w3.org/2000/svg">
<g id="&#226;&#134;&#179; Time">
<path d="M3.62781 11.0891C6.22016 11.0891 7.70359 9.00344 7.70359 5.36094C7.70359 4.19328 7.53469 3.21656 7.18953 2.40875C6.52859 0.844531 5.30219 0 3.71594 0C1.54219 0 0 1.52016 0 3.64984C0 5.70609 1.46141 7.19688 3.48094 7.19688C4.74406 7.19688 5.77953 6.59469 6.30094 5.56656H6.33031H6.35969H6.41844C6.345 8.38656 5.36828 9.91406 3.6425 9.91406C2.59969 9.91406 1.79922 9.31188 1.51281 8.32047H0.154219C0.492031 10.0242 1.82859 11.0891 3.62781 11.0891ZM3.71594 6.05125C2.31328 6.05125 1.33656 5.0525 1.33656 3.60578C1.33656 2.21781 2.37203 1.16031 3.73063 1.16031C5.08922 1.16031 6.12469 2.2325 6.12469 3.64984C6.12469 5.0525 5.11859 6.05125 3.71594 6.05125Z" fill="black"/>
<path d="M9.62795 8.71703C9.62795 9.32656 10.0612 9.75984 10.6708 9.75984C11.273 9.75984 11.6989 9.32656 11.6989 8.71703C11.6989 8.11484 11.273 7.67422 10.6708 7.67422C10.0612 7.67422 9.62795 8.11484 9.62795 8.71703ZM9.62795 3.01094C9.62795 3.61313 10.0612 4.05375 10.6708 4.05375C11.273 4.05375 11.6989 3.61313 11.6989 3.01094C11.6989 2.40141 11.273 1.96078 10.6708 1.96078C10.0612 1.96078 9.62795 2.40141 9.62795 3.01094Z" fill="black"/>
<path d="M18.6978 10.8467H19.9903V8.65094H21.4957V7.46859H19.9903V0.249688H18.0736C16.1642 3.10641 14.4825 5.76484 13.5351 7.44656V8.65094H18.6978V10.8467ZM14.8864 7.38781C16.1495 5.24344 17.5301 3.055 18.617 1.47609H18.7051V7.47594H14.8864V7.38781Z" fill="black"/>
<path d="M25.6232 10.8467H26.9451V0.249688H25.6306L22.8106 2.27656V3.67188L25.5057 1.71844H25.6232V10.8467Z" fill="black"/>
</g>
</svg>
